<?plantuml 1.2026.1?><svg xmlns="http://www.w3.org/2000/svg" xmlns:xlink="http://www.w3.org/1999/xlink" contentStyleType="text/css" data-diagram-type="DESCRIPTION" height="1170px" preserveAspectRatio="none" style="width:2016px;height:1170px;background:#FFFFFF;" version="1.1" viewBox="0 0 2016 1170" width="2016px" zoomAndPan="magnify"><title>**UNAgent &#8212; Deployment (1/2): System Context**
Devices, edge, and external SaaS.
Color coded for readability.</title><defs/><g><g class="title" data-source-line="2"><text fill="#000000" font-family="'Inter, Helvetica, sans-serif'" font-size="22" font-weight="bold" lengthAdjust="spacing" textLength="576.6621" x="715.1689" y="35.4209">UNAgent &#8212; Deployment (1/2): System Context</text><text fill="#000000" font-family="'Inter, Helvetica, sans-serif'" font-size="22" font-weight="bold" lengthAdjust="spacing" textLength="424.252" x="791.374" y="61.0303">Devices, edge, and external SaaS.</text><text fill="#000000" font-family="'Inter, Helvetica, sans-serif'" font-size="22" font-weight="bold" lengthAdjust="spacing" textLength="340.6455" x="833.1772" y="86.6396">Color coded for readability.</text></g><!--cluster devClient--><g class="cluster" data-qualified-name="devClient" data-source-line="22" id="ent0002"><polygon fill="#F0F4FF" points="391,125.8081,401,115.8081,696,115.8081,696,246.7481,686,256.7481,391,256.7481,391,125.8081" style="stroke:#4A6FB5;stroke-width:1;"/><line style="stroke:#4A6FB5;stroke-width:1;" x1="686" x2="696" y1="125.8081" y2="115.8081"/><line style="stroke:#4A6FB5;stroke-width:1;" x1="391" x2="686" y1="125.8081" y2="125.8081"/><line style="stroke:#4A6FB5;stroke-width:1;" x1="686" x2="686" y1="125.8081" y2="256.7481"/><text fill="#000000" font-family="'Inter, Helvetica, sans-serif'" font-size="12" font-style="italic" lengthAdjust="spacing" textLength="54.0996" x="512.4502" y="139.9468">&#171;device&#187;</text><text fill="#000000" font-family="'Inter, Helvetica, sans-serif'" font-size="12" font-weight="bold" lengthAdjust="spacing" textLength="107.6016" x="485.6992" y="153.9155">End-user laptop</text></g><!--cluster devTg--><g class="cluster" data-qualified-name="devTg" data-source-line="26" id="ent0004"><polygon fill="#F0F4FF" points="1340,327.7281,1350,317.7281,1645,317.7281,1645,448.6681,1635,458.6681,1340,458.6681,1340,327.7281" style="stroke:#4A6FB5;stroke-width:1;"/><line style="stroke:#4A6FB5;stroke-width:1;" x1="1635" x2="1645" y1="327.7281" y2="317.7281"/><line style="stroke:#4A6FB5;stroke-width:1;" x1="1340" x2="1635" y1="327.7281" y2="327.7281"/><line style="stroke:#4A6FB5;stroke-width:1;" x1="1635" x2="1635" y1="327.7281" y2="458.6681"/><text fill="#000000" font-family="'Inter, Helvetica, sans-serif'" font-size="12" font-style="italic" lengthAdjust="spacing" textLength="54.0996" x="1461.4502" y="341.8668">&#171;device&#187;</text><text fill="#000000" font-family="'Inter, Helvetica, sans-serif'" font-size="12" font-weight="bold" lengthAdjust="spacing" textLength="112.3008" x="1432.3496" y="355.8355">Mobile / desktop</text></g><!--cluster devCf--><g class="cluster" data-qualified-name="devCf" data-source-line="31" id="ent0006"><polygon fill="#F0F4FF" points="21,118.8281,31,108.8281,326,108.8281,326,455.6481,316,465.6481,21,465.6481,21,118.8281" style="stroke:#4A6FB5;stroke-width:1;"/><line style="stroke:#4A6FB5;stroke-width:1;" x1="316" x2="326" y1="118.8281" y2="108.8281"/><line style="stroke:#4A6FB5;stroke-width:1;" x1="21" x2="316" y1="118.8281" y2="118.8281"/><line style="stroke:#4A6FB5;stroke-width:1;" x1="316" x2="316" y1="118.8281" y2="465.6481"/><text fill="#000000" font-family="'Inter, Helvetica, sans-serif'" font-size="12" font-style="italic" lengthAdjust="spacing" textLength="54.0996" x="142.4502" y="132.9668">&#171;device&#187;</text><text fill="#000000" font-family="'Inter, Helvetica, sans-serif'" font-size="12" font-weight="bold" lengthAdjust="spacing" textLength="107.4199" x="115.79" y="146.9355">Cloudflare edge</text></g><!--cluster devHost--><g class="cluster" data-qualified-name="devHost" data-source-line="37" id="ent0009"><polygon fill="#F0F4FF" points="366,306.7481,376,296.7481,872,296.7481,872,455.6481,862,465.6481,366,465.6481,366,306.7481" style="stroke:#4A6FB5;stroke-width:1;"/><line style="stroke:#4A6FB5;stroke-width:1;" x1="862" x2="872" y1="306.7481" y2="296.7481"/><line style="stroke:#4A6FB5;stroke-width:1;" x1="366" x2="862" y1="306.7481" y2="306.7481"/><line style="stroke:#4A6FB5;stroke-width:1;" x1="862" x2="862" y1="306.7481" y2="465.6481"/><text fill="#000000" font-family="'Inter, Helvetica, sans-serif'" font-size="12" font-style="italic" lengthAdjust="spacing" textLength="54.0996" x="587.9502" y="320.8868">&#171;device&#187;</text><text fill="#000000" font-family="'Inter, Helvetica, sans-serif'" font-size="12" font-weight="bold" lengthAdjust="spacing" textLength="31.166" x="599.417" y="334.8555">Host</text><text fill="#000000" font-family="'Inter, Helvetica, sans-serif'" font-size="12" font-weight="bold" lengthAdjust="spacing" textLength="152.5957" x="538.7021" y="348.8243">Linux + Docker engine</text></g><!--cluster devExt--><g class="cluster" data-qualified-name="devExt" data-source-line="48" id="ent0014"><polygon fill="#F0F4FF" points="1694,320.7481,1704,310.7481,1999,310.7481,1999,1143.2781,1989,1153.2781,1694,1153.2781,1694,320.7481" style="stroke:#4A6FB5;stroke-width:1;"/><line style="stroke:#4A6FB5;stroke-width:1;" x1="1989" x2="1999" y1="320.7481" y2="310.7481"/><line style="stroke:#4A6FB5;stroke-width:1;" x1="1694" x2="1989" y1="320.7481" y2="320.7481"/><line style="stroke:#4A6FB5;stroke-width:1;" x1="1989" x2="1989" y1="320.7481" y2="1153.2781"/><text fill="#000000" font-family="'Inter, Helvetica, sans-serif'" font-size="12" font-style="italic" lengthAdjust="spacing" textLength="54.0996" x="1815.4502" y="334.8868">&#171;device&#187;</text><text fill="#000000" font-family="'Inter, Helvetica, sans-serif'" font-size="12" font-weight="bold" lengthAdjust="spacing" textLength="182.9297" x="1751.0352" y="348.8555">External managed services</text></g><!--entity ee_browser--><g class="entity" data-qualified-name="devClient.ee_browser" data-source-line="23" id="ent0003"><rect fill="#FFF8E1" height="57.9375" rx="6" ry="6" style="stroke:#B89800;stroke-width:1;" width="192.627" x="479.69" y="174.8081"/><rect fill="#FFF8E1" height="10" style="stroke:#B89800;stroke-width:1;" width="15" x="652.317" y="179.8081"/><rect fill="#FFF8E1" height="2" style="stroke:#B89800;stroke-width:1;" width="4" x="650.317" y="181.8081"/><rect fill="#FFF8E1" height="2" style="stroke:#B89800;stroke-width:1;" width="4" x="650.317" y="185.8081"/><text fill="#000000" font-family="'Inter, Helvetica, sans-serif'" font-size="12" font-style="italic" lengthAdjust="spacing" textLength="150.627" x="495.69" y="205.9468">&#171;executionEnvironment&#187;</text><text fill="#000000" font-family="'Inter, Helvetica, sans-serif'" font-size="12" lengthAdjust="spacing" textLength="48.8906" x="546.5582" y="219.9155">Browser</text></g><!--entity ee_tg--><g class="entity" data-qualified-name="devTg.ee_tg" data-source-line="27" id="ent0005"><rect fill="#FFF8E1" height="57.9375" rx="6" ry="6" style="stroke:#B89800;stroke-width:1;" width="192.627" x="1428.69" y="376.7281"/><rect fill="#FFF8E1" height="10" style="stroke:#B89800;stroke-width:1;" width="15" x="1601.317" y="381.7281"/><rect fill="#FFF8E1" height="2" style="stroke:#B89800;stroke-width:1;" width="4" x="1599.317" y="383.7281"/><rect fill="#FFF8E1" height="2" style="stroke:#B89800;stroke-width:1;" width="4" x="1599.317" y="387.7281"/><text fill="#000000" font-family="'Inter, Helvetica, sans-serif'" font-size="12" font-style="italic" lengthAdjust="spacing" textLength="150.627" x="1444.69" y="407.8668">&#171;executionEnvironment&#187;</text><text fill="#000000" font-family="'Inter, Helvetica, sans-serif'" font-size="12" lengthAdjust="spacing" textLength="93.7969" x="1473.105" y="421.8355">Telegram client</text></g><!--entity ee_pages--><g class="entity" data-qualified-name="devCf.ee_pages" data-source-line="32" id="ent0007"><rect fill="#FFF8E1" height="71.9063" rx="6" ry="6" style="stroke:#B89800;stroke-width:1;" width="192.627" x="44.69" y="167.8281"/><rect fill="#FFF8E1" height="10" style="stroke:#B89800;stroke-width:1;" width="15" x="217.317" y="172.8281"/><rect fill="#FFF8E1" height="2" style="stroke:#B89800;stroke-width:1;" width="4" x="215.317" y="174.8281"/><rect fill="#FFF8E1" height="2" style="stroke:#B89800;stroke-width:1;" width="4" x="215.317" y="178.8281"/><text fill="#000000" font-family="'Inter, Helvetica, sans-serif'" font-size="12" font-style="italic" lengthAdjust="spacing" textLength="150.627" x="60.69" y="198.9668">&#171;executionEnvironment&#187;</text><text fill="#000000" font-family="'Inter, Helvetica, sans-serif'" font-size="12" lengthAdjust="spacing" textLength="35.8418" x="85.1207" y="212.9355">Pages</text><text fill="#000000" font-family="'Inter, Helvetica, sans-serif'" font-size="12" lengthAdjust="spacing" textLength="101.7656" x="85.1207" y="226.9043">app.unagent.site</text></g><!--entity ee_tunnel--><g class="entity" data-qualified-name="devCf.ee_tunnel" data-source-line="33" id="ent0008"><rect fill="#FFF8E1" height="71.9063" rx="6" ry="6" style="stroke:#B89800;stroke-width:1;" width="192.627" x="44.69" y="369.7481"/><rect fill="#FFF8E1" height="10" style="stroke:#B89800;stroke-width:1;" width="15" x="217.317" y="374.7481"/><rect fill="#FFF8E1" height="2" style="stroke:#B89800;stroke-width:1;" width="4" x="215.317" y="376.7481"/><rect fill="#FFF8E1" height="2" style="stroke:#B89800;stroke-width:1;" width="4" x="215.317" y="380.7481"/><text fill="#000000" font-family="'Inter, Helvetica, sans-serif'" font-size="12" font-style="italic" lengthAdjust="spacing" textLength="150.627" x="60.69" y="400.8868">&#171;executionEnvironment&#187;</text><text fill="#000000" font-family="'Inter, Helvetica, sans-serif'" font-size="12" lengthAdjust="spacing" textLength="40.8633" x="97.6509" y="414.8555">Tunnel</text><text fill="#000000" font-family="'Inter, Helvetica, sans-serif'" font-size="12" lengthAdjust="spacing" textLength="76.7051" x="97.6509" y="428.8243">(cloudflared)</text></g><!--entity ee_host--><g class="entity" data-qualified-name="devHost.ee_host" data-source-line="38" id="ent0010"><rect fill="#FFF8E1" height="71.9063" rx="6" ry="6" style="stroke:#B89800;stroke-width:1;" width="192.627" x="454.69" y="369.7481"/><rect fill="#FFF8E1" height="10" style="stroke:#B89800;stroke-width:1;" width="15" x="627.317" y="374.7481"/><rect fill="#FFF8E1" height="2" style="stroke:#B89800;stroke-width:1;" width="4" x="625.317" y="376.7481"/><rect fill="#FFF8E1" height="2" style="stroke:#B89800;stroke-width:1;" width="4" x="625.317" y="380.7481"/><text fill="#000000" font-family="'Inter, Helvetica, sans-serif'" font-size="12" font-style="italic" lengthAdjust="spacing" textLength="150.627" x="470.69" y="400.8868">&#171;executionEnvironment&#187;</text><text fill="#000000" font-family="'Inter, Helvetica, sans-serif'" font-size="12" lengthAdjust="spacing" textLength="100.6934" x="495.6568" y="414.8555">archsoft (bridge)</text><text fill="#000000" font-family="'Inter, Helvetica, sans-serif'" font-size="12" lengthAdjust="spacing" textLength="82.1953" x="495.6568" y="428.8243">13 containers</text></g><g class="entity" data-qualified-name="devHost.GMN11" data-source-line="40" id="ent0012"><path d="M727.68,378.7581 L727.68,432.6331 A6,6 0 0 0 733.68,438.6331 L842.3187,438.6331 A6,6 0 0 0 848.3187,432.6331 L848.3187,382.7581 L838.3187,372.7581 L733.68,372.7581 A6,6 0 0 0 727.68,378.7581" fill="#FFFFFF" style="stroke:#000000;stroke-width:1;"/><path d="M838.3187,372.7581 L838.3187,379.7581 A3,3 0 0 0 841.3187,382.7581 L848.3187,382.7581 L838.3187,372.7581" fill="#FFFFFF" style="stroke:#000000;stroke-width:1;"/><text fill="#000000" font-family="'Inter, Helvetica, sans-serif'" font-size="12" lengthAdjust="spacing" textLength="65.1035" x="733.68" y="388.8968">Detailed in</text><text fill="#000000" font-family="'Inter, Helvetica, sans-serif'" font-size="12" lengthAdjust="spacing" textLength="76.8398" x="733.68" y="402.8655">diagram 2/2.</text><text fill="#000000" font-family="'Inter, Helvetica, sans-serif'" font-size="12" lengthAdjust="spacing" textLength="94.0723" x="733.68" y="416.8343">Maps 1:1 to the</text><text fill="#000000" font-family="'Inter, Helvetica, sans-serif'" font-size="12" lengthAdjust="spacing" textLength="99.6387" x="733.68" y="430.803">C&amp;C view (&#167;3.1).</text></g><!--entity ee_sb--><g class="entity" data-qualified-name="devExt.ee_sb" data-source-line="49" id="ent0015"><rect fill="#FFF8E1" height="71.9063" rx="6" ry="6" style="stroke:#B89800;stroke-width:1;" width="192.627" x="1782.69" y="369.7481"/><rect fill="#FFF8E1" height="10" style="stroke:#B89800;stroke-width:1;" width="15" x="1955.317" y="374.7481"/><rect fill="#FFF8E1" height="2" style="stroke:#B89800;stroke-width:1;" width="4" x="1953.317" y="376.7481"/><rect fill="#FFF8E1" height="2" style="stroke:#B89800;stroke-width:1;" width="4" x="1953.317" y="380.7481"/><text fill="#000000" font-family="'Inter, Helvetica, sans-serif'" font-size="12" font-style="italic" lengthAdjust="spacing" textLength="150.627" x="1798.69" y="400.8868">&#171;executionEnvironment&#187;</text><text fill="#000000" font-family="'Inter, Helvetica, sans-serif'" font-size="12" lengthAdjust="spacing" textLength="58.7988" x="1844.6041" y="414.8555">Supabase</text><text fill="#000000" font-family="'Inter, Helvetica, sans-serif'" font-size="12" lengthAdjust="spacing" textLength="51.7207" x="1844.6041" y="428.8243">Postgres</text></g><!--entity ee_atlas--><g class="entity" data-qualified-name="devExt.ee_atlas" data-source-line="50" id="ent0016"><rect fill="#FFF8E1" height="71.9063" rx="6" ry="6" style="stroke:#B89800;stroke-width:1;" width="192.627" x="1782.69" y="541.6481"/><rect fill="#FFF8E1" height="10" style="stroke:#B89800;stroke-width:1;" width="15" x="1955.317" y="546.6481"/><rect fill="#FFF8E1" height="2" style="stroke:#B89800;stroke-width:1;" width="4" x="1953.317" y="548.6481"/><rect fill="#FFF8E1" height="2" style="stroke:#B89800;stroke-width:1;" width="4" x="1953.317" y="552.6481"/><text fill="#000000" font-family="'Inter, Helvetica, sans-serif'" font-size="12" font-style="italic" lengthAdjust="spacing" textLength="150.627" x="1798.69" y="572.7868">&#171;executionEnvironment&#187;</text><text fill="#000000" font-family="'Inter, Helvetica, sans-serif'" font-size="12" lengthAdjust="spacing" textLength="57.7324" x="1845.1373" y="586.7555">MongoDB</text><text fill="#000000" font-family="'Inter, Helvetica, sans-serif'" font-size="12" lengthAdjust="spacing" textLength="29.8535" x="1845.1373" y="600.7243">Atlas</text></g><!--entity ee_or--><g class="entity" data-qualified-name="devExt.ee_or" data-source-line="51" id="ent0017"><rect fill="#FFF8E1" height="71.9063" rx="6" ry="6" style="stroke:#B89800;stroke-width:1;" width="192.627" x="1782.69" y="713.5581"/><rect fill="#FFF8E1" height="10" style="stroke:#B89800;stroke-width:1;" width="15" x="1955.317" y="718.5581"/><rect fill="#FFF8E1" height="2" style="stroke:#B89800;stroke-width:1;" width="4" x="1953.317" y="720.5581"/><rect fill="#FFF8E1" height="2" style="stroke:#B89800;stroke-width:1;" width="4" x="1953.317" y="724.5581"/><text fill="#000000" font-family="'Inter, Helvetica, sans-serif'" font-size="12" font-style="italic" lengthAdjust="spacing" textLength="150.627" x="1798.69" y="744.6968">&#171;executionEnvironment&#187;</text><text fill="#000000" font-family="'Inter, Helvetica, sans-serif'" font-size="12" lengthAdjust="spacing" textLength="72.3574" x="1834.5699" y="758.6655">OpenRouter</text><text fill="#000000" font-family="'Inter, Helvetica, sans-serif'" font-size="12" lengthAdjust="spacing" textLength="78.8672" x="1834.5699" y="772.6343">LLM gateway</text></g><!--entity ee_sg--><g class="entity" data-qualified-name="devExt.ee_sg" data-source-line="52" id="ent0018"><rect fill="#FFF8E1" height="71.9063" rx="6" ry="6" style="stroke:#B89800;stroke-width:1;" width="192.627" x="1782.69" y="885.4681"/><rect fill="#FFF8E1" height="10" style="stroke:#B89800;stroke-width:1;" width="15" x="1955.317" y="890.4681"/><rect fill="#FFF8E1" height="2" style="stroke:#B89800;stroke-width:1;" width="4" x="1953.317" y="892.4681"/><rect fill="#FFF8E1" height="2" style="stroke:#B89800;stroke-width:1;" width="4" x="1953.317" y="896.4681"/><text fill="#000000" font-family="'Inter, Helvetica, sans-serif'" font-size="12" font-style="italic" lengthAdjust="spacing" textLength="150.627" x="1798.69" y="916.6068">&#171;executionEnvironment&#187;</text><text fill="#000000" font-family="'Inter, Helvetica, sans-serif'" font-size="12" lengthAdjust="spacing" textLength="55.4063" x="1846.3004" y="930.5755">SendGrid</text><text fill="#000000" font-family="'Inter, Helvetica, sans-serif'" font-size="12" lengthAdjust="spacing" textLength="33.0938" x="1846.3004" y="944.5443">email</text></g><!--entity ee_tgapi--><g class="entity" data-qualified-name="devExt.ee_tgapi" data-source-line="53" id="ent0019"><rect fill="#FFF8E1" height="71.9063" rx="6" ry="6" style="stroke:#B89800;stroke-width:1;" width="192.627" x="1782.69" y="1057.3681"/><rect fill="#FFF8E1" height="10" style="stroke:#B89800;stroke-width:1;" width="15" x="1955.317" y="1062.3681"/><rect fill="#FFF8E1" height="2" style="stroke:#B89800;stroke-width:1;" width="4" x="1953.317" y="1064.3681"/><rect fill="#FFF8E1" height="2" style="stroke:#B89800;stroke-width:1;" width="4" x="1953.317" y="1068.3681"/><text fill="#000000" font-family="'Inter, Helvetica, sans-serif'" font-size="12" font-style="italic" lengthAdjust="spacing" textLength="150.627" x="1798.69" y="1088.5068">&#171;executionEnvironment&#187;</text><text fill="#000000" font-family="'Inter, Helvetica, sans-serif'" font-size="12" lengthAdjust="spacing" textLength="57.0234" x="1845.4918" y="1102.4755">Telegram</text><text fill="#000000" font-family="'Inter, Helvetica, sans-serif'" font-size="12" lengthAdjust="spacing" textLength="43.0781" x="1845.4918" y="1116.4443">Bot API</text></g><g class="entity" data-qualified-name="GMN33" data-source-line="86" id="ent0034"><path d="M928.68,385.7481 L928.68,425.6544 A6,6 0 0 0 934.68,431.6544 L1261.3167,431.6544 A6,6 0 0 0 1267.3167,425.6544 L1267.3167,389.7481 L1257.3167,379.7481 L934.68,379.7481 A6,6 0 0 0 928.68,385.7481" fill="#FFFFFF" style="stroke:#000000;stroke-width:1;"/><path d="M1257.3167,379.7481 L1257.3167,386.7481 A3,3 0 0 0 1260.3167,389.7481 L1267.3167,389.7481 L1257.3167,379.7481" fill="#FFFFFF" style="stroke:#000000;stroke-width:1;"/><text fill="#000000" font-family="'Inter, Helvetica, sans-serif'" font-size="12" lengthAdjust="spacing" textLength="227.9121" x="934.68" y="395.8868">Cloudflare DNS (zone records) routes:</text><text fill="#000000" font-family="'Inter, Helvetica, sans-serif'" font-size="12" lengthAdjust="spacing" textLength="261.5449" x="934.68" y="409.8555">&#8226; app.unagent.site                          &#8594; Pages</text><text fill="#000000" font-family="'Inter, Helvetica, sans-serif'" font-size="12" lengthAdjust="spacing" textLength="317.6367" x="934.68" y="423.8243">&#8226; api/orch/chat/email/metrics.unagent.site  &#8594; Tunnel</text></g><g class="entity" data-qualified-name="GMN36" data-source-line="92" id="ent0037"><path d="M237.17,557.6481 L237.17,597.5544 A6,6 0 0 0 243.17,603.5544 L504.8321,603.5544 A6,6 0 0 0 510.8321,597.5544 L510.8321,561.6481 L500.8321,551.6481 L243.17,551.6481 A6,6 0 0 0 237.17,557.6481" fill="#FFFFFF" style="stroke:#000000;stroke-width:1;"/><path d="M500.8321,551.6481 L500.8321,558.6481 A3,3 0 0 0 503.8321,561.6481 L510.8321,561.6481 L500.8321,551.6481" fill="#FFFFFF" style="stroke:#000000;stroke-width:1;"/><text fill="#000000" font-family="'Inter, Helvetica, sans-serif'" font-size="12" lengthAdjust="spacing" textLength="107.3555" x="243.17" y="567.7868">cloudflared opens</text><text fill="#000000" font-family="'Inter, Helvetica, sans-serif'" font-size="12" font-weight="bold" lengthAdjust="spacing" textLength="65.0332" x="354.3399" y="567.7868">outbound</text><text fill="#000000" font-family="'Inter, Helvetica, sans-serif'" font-size="12" lengthAdjust="spacing" textLength="62.3145" x="423.1876" y="567.7868">TCP to the</text><text fill="#000000" font-family="'Inter, Helvetica, sans-serif'" font-size="12" lengthAdjust="spacing" textLength="252.6621" x="243.17" y="581.7555">Cloudflare edge. Only port 22 needs to be</text><text fill="#000000" font-family="'Inter, Helvetica, sans-serif'" font-size="12" lengthAdjust="spacing" textLength="193.1133" x="243.17" y="595.7243">reachable on the host (for SSH).</text></g><!--link ee_host to GMN11--><g class="link" data-entity-1="ent0010" data-entity-2="ent0012" data-link-type="association" data-source-line="40" id="lnk13"><path d="M647.74,406.2781 C674.62,406.2781 703.04,406.2781 727.23,406.2781" fill="none" id="ee_host-GMN11" style="stroke:#000000;stroke-width:1;stroke-dasharray:7,7;"/></g><!--link devClient to devTg--><!--link ee_pages to ee_tunnel--><!--link ee_sb to ee_atlas--><!--link ee_atlas to ee_or--><!--link ee_or to ee_sg--><!--link ee_sg to ee_tgapi--><!--link devClient to devCf--><!--link devClient to devCf--><g class="link" data-entity-1="ent0002" data-entity-2="ent0006" data-link-type="dependency" data-source-line="73" id="lnk29"><path d="M390.8901,204.2781 C390.709,204.2781 390.5254,204.2781 390.3394,204.2781 C389.9674,204.2781 389.5857,204.2781 389.1947,204.2781 C387.6309,204.2781 385.9194,204.2781 384.0898,204.2781 C376.7716,204.2781 367.5644,204.2781 358.3663,204.2781 C349.1681,204.2781 339.9791,204.2781 332.697,204.2781 C330.8765,204.2781 329.1752,204.2781 327.6227,204.2781 C327.2346,204.2781 326.8558,204.2781 326.4867,204.2781 C326.3945,204.2781 326.3028,204.2781 326.2118,204.2781 C326.1663,204.2781 332.1209,204.2781 332.0757,204.2781" fill="none" id="devClient-to-devCf-1" style="stroke:#2E86C1;stroke-width:1;"/><polygon fill="#2E86C1" points="326.0757,204.2781,335.0757,208.2781,331.0757,204.2781,335.0757,200.2781,326.0757,204.2781" style="stroke:#2E86C1;stroke-width:1;"/><text fill="#2E86C1" font-family="'Inter, Helvetica, sans-serif'" font-size="12" lengthAdjust="spacing" textLength="53.2207" x="296.6773" y="187.4168">&#171;HTTPS&#187;</text><text fill="#000000" font-family="'Inter, Helvetica, sans-serif'" font-size="12" lengthAdjust="spacing" textLength="69.6152" x="288.48" y="201.3855">static + API</text></g><!--link devCf to devHost--><!--link devCf to devHost--><g class="link" data-entity-1="ent0006" data-entity-2="ent0009" data-link-type="dependency" data-source-line="76" id="lnk30"><path d="M326.1797,406.2781 C326.2561,406.2781 326.3328,406.2781 326.41,406.2781 C326.7186,406.2781 327.0333,406.2781 327.3537,406.2781 C327.9946,406.2781 328.6582,406.2781 329.3419,406.2781 C330.7093,406.2781 332.1568,406.2781 333.6617,406.2781 C336.6715,406.2781 339.9109,406.2781 343.1988,406.2781 C349.7744,406.2781 356.5434,406.2781 362.0555,406.2781 C363.4335,406.2781 358.7329,406.2781 359.9311,406.2781" fill="none" id="devCf-to-devHost-1" style="stroke:#8E44AD;stroke-width:1;"/><polygon fill="#8E44AD" points="365.9311,406.2781,356.9311,402.2781,360.9311,406.2781,356.9311,410.2781,365.9311,406.2781" style="stroke:#8E44AD;stroke-width:1;"/><text fill="#8E44AD" font-family="'Inter, Helvetica, sans-serif'" font-size="12" lengthAdjust="spacing" textLength="98.2148" x="187.8624" y="316.3068">&#171;HTTPS / mTLS&#187;</text><text fill="#000000" font-family="'Inter, Helvetica, sans-serif'" font-size="12" lengthAdjust="spacing" textLength="160.5996" x="156.67" y="330.2755">outbound from cloudflared</text></g><!--link devHost to devExt--><!--link devHost to devExt--><g class="link" data-entity-1="ent0009" data-entity-2="ent0014" data-link-type="dependency" data-source-line="82" id="lnk32"><path d="M386.5,296.4413 C386.5,295.8191 386.5,295.2148 386.5,294.6292 C386.5,292.2869 386.5,290.2449 386.5,288.5633 C386.5,285.2 386.5,283.2781 386.5,283.2781 C386.5,283.2781 1702,283.2781 1702,283.2781 C1702,283.2781 1702,290.2288 1702,300.8177 C1702,303.4649 1702,306.3395 1702,309.3898 C1702,309.771 1702,304.1551 1702,304.5417" fill="none" id="devHost-to-devExt-1" style="stroke:#28B463;stroke-width:1;"/><polygon fill="#28B463" points="1702,310.5417,1706,301.5417,1702,305.5417,1698,301.5417,1702,310.5417" style="stroke:#28B463;stroke-width:1;"/><text fill="#28B463" font-family="'Inter, Helvetica, sans-serif'" font-size="12" lengthAdjust="spacing" textLength="122.3613" x="898.9445" y="266.4168">&#171;HTTPS / TLS / SRV&#187;</text><text fill="#000000" font-family="'Inter, Helvetica, sans-serif'" font-size="12" lengthAdjust="spacing" textLength="153.0703" x="883.59" y="280.3855">LLM, mail, DBs, Telegram</text></g><!--link devTg to devExt--><g class="link" data-entity-1="ent0004" data-entity-2="ent0014" data-link-type="dependency" data-source-line="79" id="lnk31"><path d="M1348,458.7275 C1348,459.0424 1348,459.3567 1348,459.6702 C1348,462.1779 1348,464.6345 1348,467.0036 C1348,471.7417 1348,476.1294 1348,479.8738 C1348,487.3625 1348,492.2781 1348,492.2781 C1348,492.2781 1436.5,492.2781 1525,492.2781 C1569.25,492.2781 1613.5,492.2781 1646.6875,492.2781 C1663.2813,492.2781 1677.1094,492.2781 1686.7891,492.2781 C1689.209,492.2781 1691.3696,492.2781 1693.2494,492.2781 C1693.4844,492.2781 1687.7149,492.2781 1687.9411,492.2781" fill="none" id="devTg-to-devExt" style="stroke:#2E86C1;stroke-width:1;"/><polygon fill="#2E86C1" points="1693.9411,492.2781,1684.9411,488.2781,1688.9411,492.2781,1684.9411,496.2781,1693.9411,492.2781" style="stroke:#2E86C1;stroke-width:1;"/><text fill="#2E86C1" font-family="'Inter, Helvetica, sans-serif'" font-size="12" lengthAdjust="spacing" textLength="53.2207" x="1471" y="489.4168">&#171;HTTPS&#187;</text></g><!--link devCf to GMN33--><g class="link" data-entity-1="ent0006" data-entity-2="ent0034" data-link-type="association" data-source-line="86" id="lnk35"><path d="M326.0491,327.2781 C327.6703,327.2781 329.3267,327.2781 331.0176,327.2781 C337.7811,327.2781 345.0957,327.2781 352.9113,327.2781 C368.5426,327.2781 386.1778,327.2781 405.4163,327.2781 C482.37,327.2781 584.975,327.2781 687.58,327.2781 C892.79,327.2781 1098,327.2781 1098,327.2781 C1098,327.2781 1098,356.7781 1098,379.5881" fill="none" id="devCf-GMN33" style="stroke:#000000;stroke-width:1;stroke-dasharray:7,7;"/></g><!--link devHost to GMN36--><g class="link" data-entity-1="ent0009" data-entity-2="ent0037" data-link-type="association" data-source-line="92" id="lnk38"><path d="M374,465.8273 C374,466.0569 374,466.2867 374,466.5169 C374,466.9771 374,467.4384 374,467.9007 C374,468.8252 374,469.7538 374,470.6858 C374,472.5499 374,474.428 374,476.3163 C374,480.0929 374,483.9104 374,487.7381 C374,495.3937 374,503.0907 374,510.5855 C374,525.575 374,539.7556 374,551.1781" fill="none" id="devHost-GMN36" style="stroke:#000000;stroke-width:1;stroke-dasharray:7,7;"/></g><?plantuml-src ZLTTRXit47xVKqnje95TIueKDr05Lu1-OmEsB5XgYg8g2cftj29CaGkIQqS92kIf1sXxWVQbT-XZSvESfCDT_QmswofwM4ZBuV2RRsQ-eRwm2rmYH89nwLbk1SBfwNV3TeZImiVtVq0F8w5MI_UpLAlMJvemNXcBI-WgQV6DFJsToXu-S1_D6M0GuXam6G2je9PCm9YnSMKgkqee3RuAC80vVTF80ZRZWjjLnVFCFPSHqsm9Pi42zSXb27Cc36PMj8fbq5LQeePQFRCGu9p5mWu8pv1HB4TN14oVmIMA1xJSPsTWc3HbWvhFZuetZlbRT5wzPz0tbWjbW1X0pGIQp8uXuUym_pvSWt4n7G-U3yu7WxoLqW7gjSLv--MWytN6egkMaPB4wQVE1eD6lrPeclNOQNpJUFuyOpQsAqgTiPhxDbuA5qYvN8PnVzI-QtUlFlm-X1_Wzcvo--fssBw-whLxRZtZG729TXKXA6qNAhCWAHg34JIonsacxztB6e58ZzfyGE3SKg95l9HDy0Kdw2Phu3c7SDINGJccb81WaLNH4LnS14aPjLh03ENcePliXNSUaBir2N3KqUgHjZbxV8D-RBcIVVd0jPAkIDFTY3_FKZll5szzu8sYSaEeacjpNtpY9CoVDa61eGiu3UJWgJPq1-uJikH1G0TlA74zKi17LwWuc0kcCR4eucEUHpTY8PgfP55KYILpBLintE91b97RbmiqbXB5L9RyBOxWv72uoQwdGYvh7Yvi4nRAs8A8B-drL5vp6R-1hw2d_7kg1fGX5M91zCuw7p_J_i8eAhVIJ7CYxMGgQo_8G5fICzJc87w7Z5nAPH4IiA3ccVT0waUk16aMgQFx7N2Mb4EzMgyaBsvOPA3Mh85LG5AQlEj-sOK7ZezG-lVl5vNQYRD4qaHtpATSfUTkgoEhcqLjirbVCfVn0AZ64_4je8niyuoDuuZDcC6f7568eSR379dPleiR9KFLwqnbsmfsU3jpLliURYEKTogcG2ZzrpSGCekFR7NGbTAvO8ZKLvJugSGbPUbm965nSqzbHrbeZwu-exrPnDCKVki-95uh2WGMt8bS2Kb_Oz9VpU01jHiz0fnU0ksYZZf9DtaxRIl_kA1EGVaJpJnPRgKQv7cR5eLF37OzvoMfSULMP9IollbIQ49i9i-dN11RoVEfzPIBmqmibEPlNKkkkKWhdPd_OIDfYPIExjnBfMyFHSR0wOAtqOTY4-g37KxA_pAMb1gNOq9a5mJNAC63P0HkOJs3zjju3VboCXcDgz_ZR7Cfs0DzNEytNdPh-wYX2HU-czNDzNBhuY9nqsfTL9E5rbGQIoXy4Z-gFOVmHccw_QHdee39Xtyeqr0A-1mrIfypJSu5MFtXppdt5T05YifCdUnHTDpedv-tUtcECe1IWmqWceZBoVKUBahapDr9OAwL6ttRYU10vaOY0jkzeZYWTCrqo4WfAJg7kKbuUKG3C8o9yGJhP5rKvJnvvMt2FeC_1-OrqgKe9OmApu7mwH1qyWSpkbkHGkmLnt6zqJb_-I9N7Td3alKCDqGDFSTthxC4aMgTWTESC-XrwDwx8M1NPaDbgU_IKah6oqnPIsJIV4chciR4RkBtXcCeKPFG54AVxdbKXTe9f6cItSVtVq5-nCEJdu-__WQZzNnFT_AgeZbPzHVCLXEXh2xHtHDDpgFRcLu3lEsqAi1-cSx6J5M08a4tzBzXKpUdfp3fZdOZCNUtgS2j52k8wAO9zJf8nC0uuvcpfJy6X7H6zKBjITlJsqF9_MSOZozfbcwn_GS0?></g></svg>