<?plantuml 1.2026.1?><svg xmlns="http://www.w3.org/2000/svg" xmlns:xlink="http://www.w3.org/1999/xlink" contentStyleType="text/css" data-diagram-type="DESCRIPTION" height="1058px" preserveAspectRatio="none" style="width:1262px;height:1058px;background:#FFFFFF;" version="1.1" viewBox="0 0 1262 1058" width="1262px" zoomAndPan="magnify"><title>**UNAgent &#8212; Deployment (2/2): Host-internal view**
Everything inside the ""archsoft"" Docker network.
Solid = communication. Dashed = dependency / persists.</title><defs/><g><g class="title" data-source-line="2"><text fill="#000000" font-family="'Inter, Helvetica, sans-serif'" font-size="22" font-weight="bold" lengthAdjust="spacing" textLength="608.8887" x="322.0557" y="35.4209">UNAgent &#8212; Deployment (2/2): Host-internal view</text><text fill="#000000" font-family="'Inter, Helvetica, sans-serif'" font-size="22" font-weight="bold" lengthAdjust="spacing" textLength="265.5361" x="330.8458" y="61.821">Everything inside the</text><text fill="#000000" font-family="Courier" font-size="22" font-weight="bold" lengthAdjust="spacing" textLength="105.6003" x="604.0411" y="60.6734">archsoft</text><text fill="#000000" font-family="'Inter, Helvetica, sans-serif'" font-size="22" font-weight="bold" lengthAdjust="spacing" textLength="204.8535" x="717.3007" y="61.821">Docker network.</text><text fill="#000000" font-family="'Inter, Helvetica, sans-serif'" font-size="22" font-weight="bold" lengthAdjust="spacing" textLength="708.7158" x="272.1421" y="87.4304">Solid = communication. Dashed = dependency / persists.</text></g><!--cluster host--><g class="cluster" data-qualified-name="host" data-source-line="24" id="ent0002"><polygon fill="#F0F4FF" points="21,119.6188,31,109.6188,1245,109.6188,1245,1031.9588,1235,1041.9588,21,1041.9588,21,119.6188" style="stroke:#4A6FB5;stroke-width:1;"/><line style="stroke:#4A6FB5;stroke-width:1;" x1="1235" x2="1245" y1="119.6188" y2="109.6188"/><line style="stroke:#4A6FB5;stroke-width:1;" x1="21" x2="1235" y1="119.6188" y2="119.6188"/><line style="stroke:#4A6FB5;stroke-width:1;" x1="1235" x2="1235" y1="119.6188" y2="1041.9588"/><text fill="#000000" font-family="'Inter, Helvetica, sans-serif'" font-size="12" font-style="italic" lengthAdjust="spacing" textLength="54.0996" x="601.9502" y="133.7575">&#171;device&#187;</text><text fill="#000000" font-family="'Inter, Helvetica, sans-serif'" font-size="12" font-weight="bold" lengthAdjust="spacing" textLength="300.7031" x="478.6484" y="147.7263">Host  &#183;  Docker engine 29 + containerd 2.2.3</text></g><!--entity fe--><g class="entity" data-qualified-name="host.fe" data-source-line="28" id="ent0003"><rect fill="#FFF8E1" height="85.875" rx="6" ry="6" style="stroke:#B89800;stroke-width:1;" width="192.627" x="726.69" y="168.6188"/><rect fill="#FFF8E1" height="10" style="stroke:#B89800;stroke-width:1;" width="15" x="899.317" y="173.6188"/><rect fill="#FFF8E1" height="2" style="stroke:#B89800;stroke-width:1;" width="4" x="897.317" y="175.6188"/><rect fill="#FFF8E1" height="2" style="stroke:#B89800;stroke-width:1;" width="4" x="897.317" y="179.6188"/><text fill="#000000" font-family="'Inter, Helvetica, sans-serif'" font-size="12" font-style="italic" lengthAdjust="spacing" textLength="150.627" x="742.69" y="199.7575">&#171;executionEnvironment&#187;</text><text fill="#000000" font-family="'Inter, Helvetica, sans-serif'" font-size="12" font-weight="bold" lengthAdjust="spacing" textLength="58.9336" x="742.9595" y="213.7263">frontend</text><text fill="#000000" font-family="'Inter, Helvetica, sans-serif'" font-size="12" lengthAdjust="spacing" textLength="150.0879" x="742.9595" y="227.695">nginx 1.27 + Vite bundle</text><text fill="#000000" font-family="'Inter, Helvetica, sans-serif'" font-size="12" lengthAdjust="spacing" textLength="63.4922" x="742.9595" y="241.6638">3000 &#8594; 80</text></g><!--entity orch--><g class="entity" data-qualified-name="host.orch" data-source-line="29" id="ent0004"><rect fill="#FFF8E1" height="85.875" rx="6" ry="6" style="stroke:#B89800;stroke-width:1;" width="192.627" x="726.69" y="328.4888"/><rect fill="#FFF8E1" height="10" style="stroke:#B89800;stroke-width:1;" width="15" x="899.317" y="333.4888"/><rect fill="#FFF8E1" height="2" style="stroke:#B89800;stroke-width:1;" width="4" x="897.317" y="335.4888"/><rect fill="#FFF8E1" height="2" style="stroke:#B89800;stroke-width:1;" width="4" x="897.317" y="339.4888"/><text fill="#000000" font-family="'Inter, Helvetica, sans-serif'" font-size="12" font-style="italic" lengthAdjust="spacing" textLength="150.627" x="742.69" y="359.6275">&#171;executionEnvironment&#187;</text><text fill="#000000" font-family="'Inter, Helvetica, sans-serif'" font-size="12" font-weight="bold" lengthAdjust="spacing" textLength="64.2891" x="778.6226" y="373.5963">chat-orch</text><text fill="#000000" font-family="'Inter, Helvetica, sans-serif'" font-size="12" lengthAdjust="spacing" textLength="73.1777" x="778.6226" y="387.565">Rust / Axum</text><text fill="#000000" font-family="'Inter, Helvetica, sans-serif'" font-size="12" lengthAdjust="spacing" textLength="78.7617" x="778.6226" y="401.5338">8000 &#8594; 3000</text></g><!--entity tenant--><g class="entity" data-qualified-name="host.tenant" data-source-line="30" id="ent0005"><rect fill="#FFF8E1" height="85.875" rx="6" ry="6" style="stroke:#B89800;stroke-width:1;" width="192.627" x="1028.69" y="501.3688"/><rect fill="#FFF8E1" height="10" style="stroke:#B89800;stroke-width:1;" width="15" x="1201.317" y="506.3688"/><rect fill="#FFF8E1" height="2" style="stroke:#B89800;stroke-width:1;" width="4" x="1199.317" y="508.3688"/><rect fill="#FFF8E1" height="2" style="stroke:#B89800;stroke-width:1;" width="4" x="1199.317" y="512.3688"/><text fill="#000000" font-family="'Inter, Helvetica, sans-serif'" font-size="12" font-style="italic" lengthAdjust="spacing" textLength="150.627" x="1044.69" y="532.5075">&#171;executionEnvironment&#187;</text><text fill="#000000" font-family="'Inter, Helvetica, sans-serif'" font-size="12" font-weight="bold" lengthAdjust="spacing" textLength="44.7949" x="1095.7281" y="546.4763">tenant</text><text fill="#000000" font-family="'Inter, Helvetica, sans-serif'" font-size="12" lengthAdjust="spacing" textLength="48.5508" x="1095.7281" y="560.445">Go / Gin</text><text fill="#000000" font-family="'Inter, Helvetica, sans-serif'" font-size="12" lengthAdjust="spacing" textLength="30.5391" x="1095.7281" y="574.4138">8080</text></g><!--entity agent--><g class="entity" data-qualified-name="host.agent" data-source-line="35" id="ent0006"><rect fill="#FFF8E1" height="85.875" rx="6" ry="6" style="stroke:#B89800;stroke-width:1;" width="192.627" x="268.69" y="501.3688"/><rect fill="#FFF8E1" height="10" style="stroke:#B89800;stroke-width:1;" width="15" x="441.317" y="506.3688"/><rect fill="#FFF8E1" height="2" style="stroke:#B89800;stroke-width:1;" width="4" x="439.317" y="508.3688"/><rect fill="#FFF8E1" height="2" style="stroke:#B89800;stroke-width:1;" width="4" x="439.317" y="512.3688"/><text fill="#000000" font-family="'Inter, Helvetica, sans-serif'" font-size="12" font-style="italic" lengthAdjust="spacing" textLength="150.627" x="284.69" y="532.5075">&#171;executionEnvironment&#187;</text><text fill="#000000" font-family="'Inter, Helvetica, sans-serif'" font-size="12" font-weight="bold" lengthAdjust="spacing" textLength="97.582" x="305.4058" y="546.4763">agent-runtime</text><text fill="#000000" font-family="'Inter, Helvetica, sans-serif'" font-size="12" lengthAdjust="spacing" textLength="109.1953" x="305.4058" y="560.445">Node 20 / Express</text><text fill="#000000" font-family="'Inter, Helvetica, sans-serif'" font-size="12" lengthAdjust="spacing" textLength="30.5391" x="305.4058" y="574.4138">3100</text></g><!--entity conv--><g class="entity" data-qualified-name="host.conv" data-source-line="36" id="ent0007"><rect fill="#FFF8E1" height="85.875" rx="6" ry="6" style="stroke:#B89800;stroke-width:1;" width="192.627" x="44.69" y="661.2388"/><rect fill="#FFF8E1" height="10" style="stroke:#B89800;stroke-width:1;" width="15" x="217.317" y="666.2388"/><rect fill="#FFF8E1" height="2" style="stroke:#B89800;stroke-width:1;" width="4" x="215.317" y="668.2388"/><rect fill="#FFF8E1" height="2" style="stroke:#B89800;stroke-width:1;" width="4" x="215.317" y="672.2388"/><text fill="#000000" font-family="'Inter, Helvetica, sans-serif'" font-size="12" font-style="italic" lengthAdjust="spacing" textLength="150.627" x="60.69" y="692.3775">&#171;executionEnvironment&#187;</text><text fill="#000000" font-family="'Inter, Helvetica, sans-serif'" font-size="12" font-weight="bold" lengthAdjust="spacing" textLength="122.127" x="74.94" y="706.3463">conversation-chat</text><text fill="#000000" font-family="'Inter, Helvetica, sans-serif'" font-size="12" lengthAdjust="spacing" textLength="48.5508" x="74.94" y="720.315">Go / Gin</text><text fill="#000000" font-family="'Inter, Helvetica, sans-serif'" font-size="12" lengthAdjust="spacing" textLength="30.5391" x="74.94" y="734.2838">8082</text></g><!--entity comp--><g class="entity" data-qualified-name="host.comp" data-source-line="37" id="ent0008"><rect fill="#FFF8E1" height="85.875" rx="6" ry="6" style="stroke:#B89800;stroke-width:1;" width="192.627" x="272.69" y="661.2388"/><rect fill="#FFF8E1" height="10" style="stroke:#B89800;stroke-width:1;" width="15" x="445.317" y="666.2388"/><rect fill="#FFF8E1" height="2" style="stroke:#B89800;stroke-width:1;" width="4" x="443.317" y="668.2388"/><rect fill="#FFF8E1" height="2" style="stroke:#B89800;stroke-width:1;" width="4" x="443.317" y="672.2388"/><text fill="#000000" font-family="'Inter, Helvetica, sans-serif'" font-size="12" font-style="italic" lengthAdjust="spacing" textLength="150.627" x="288.69" y="692.3775">&#171;executionEnvironment&#187;</text><text fill="#000000" font-family="'Inter, Helvetica, sans-serif'" font-size="12" font-weight="bold" lengthAdjust="spacing" textLength="76.5703" x="315.2711" y="706.3463">compliance</text><text fill="#000000" font-family="'Inter, Helvetica, sans-serif'" font-size="12" lengthAdjust="spacing" textLength="97.4648" x="315.2711" y="720.315">Python / FastAPI</text><text fill="#000000" font-family="'Inter, Helvetica, sans-serif'" font-size="12" lengthAdjust="spacing" textLength="30.5391" x="315.2711" y="734.2838">8091</text></g><!--entity hosp--><g class="entity" data-qualified-name="host.hosp" data-source-line="42" id="ent0009"><rect fill="#FFF8E1" height="85.875" rx="6" ry="6" style="stroke:#B89800;stroke-width:1;" width="192.627" x="970.69" y="661.2388"/><rect fill="#FFF8E1" height="10" style="stroke:#B89800;stroke-width:1;" width="15" x="1143.317" y="666.2388"/><rect fill="#FFF8E1" height="2" style="stroke:#B89800;stroke-width:1;" width="4" x="1141.317" y="668.2388"/><rect fill="#FFF8E1" height="2" style="stroke:#B89800;stroke-width:1;" width="4" x="1141.317" y="672.2388"/><text fill="#000000" font-family="'Inter, Helvetica, sans-serif'" font-size="12" font-style="italic" lengthAdjust="spacing" textLength="150.627" x="986.69" y="692.3775">&#171;executionEnvironment&#187;</text><text fill="#000000" font-family="'Inter, Helvetica, sans-serif'" font-size="12" font-weight="bold" lengthAdjust="spacing" textLength="95.4023" x="1014.3023" y="706.3463">hospital-mock</text><text fill="#000000" font-family="'Inter, Helvetica, sans-serif'" font-size="12" lengthAdjust="spacing" textLength="84.0586" x="1014.3023" y="720.315">Python / Flask</text><text fill="#000000" font-family="'Inter, Helvetica, sans-serif'" font-size="12" lengthAdjust="spacing" textLength="78.7617" x="1014.3023" y="734.2838">8092 &#8594; 8080</text></g><!--entity email--><g class="entity" data-qualified-name="host.email" data-source-line="43" id="ent0010"><rect fill="#FFF8E1" height="85.875" rx="6" ry="6" style="stroke:#B89800;stroke-width:1;" width="192.627" x="742.69" y="661.2388"/><rect fill="#FFF8E1" height="10" style="stroke:#B89800;stroke-width:1;" width="15" x="915.317" y="666.2388"/><rect fill="#FFF8E1" height="2" style="stroke:#B89800;stroke-width:1;" width="4" x="913.317" y="668.2388"/><rect fill="#FFF8E1" height="2" style="stroke:#B89800;stroke-width:1;" width="4" x="913.317" y="672.2388"/><text fill="#000000" font-family="'Inter, Helvetica, sans-serif'" font-size="12" font-style="italic" lengthAdjust="spacing" textLength="150.627" x="758.69" y="692.3775">&#171;executionEnvironment&#187;</text><text fill="#000000" font-family="'Inter, Helvetica, sans-serif'" font-size="12" font-weight="bold" lengthAdjust="spacing" textLength="74.3613" x="768.9644" y="706.3463">email-send</text><text fill="#000000" font-family="'Inter, Helvetica, sans-serif'" font-size="12" lengthAdjust="spacing" textLength="130.0781" x="768.9644" y="720.315">Java / Spring Boot 3.3</text><text fill="#000000" font-family="'Inter, Helvetica, sans-serif'" font-size="12" lengthAdjust="spacing" textLength="78.7617" x="768.9644" y="734.2838">8089 &#8594; 8080</text></g><!--entity redis--><g class="entity" data-qualified-name="host.redis" data-source-line="48" id="ent0011"><rect fill="#FFF8E1" height="85.875" rx="6" ry="6" style="stroke:#B89800;stroke-width:1;" width="192.627" x="193.69" y="821.1188"/><rect fill="#FFF8E1" height="10" style="stroke:#B89800;stroke-width:1;" width="15" x="366.317" y="826.1188"/><rect fill="#FFF8E1" height="2" style="stroke:#B89800;stroke-width:1;" width="4" x="364.317" y="828.1188"/><rect fill="#FFF8E1" height="2" style="stroke:#B89800;stroke-width:1;" width="4" x="364.317" y="832.1188"/><text fill="#000000" font-family="'Inter, Helvetica, sans-serif'" font-size="12" font-style="italic" lengthAdjust="spacing" textLength="150.627" x="209.69" y="852.2575">&#171;executionEnvironment&#187;</text><text fill="#000000" font-family="'Inter, Helvetica, sans-serif'" font-size="12" font-weight="bold" lengthAdjust="spacing" textLength="33.9023" x="243.9263" y="866.2263">redis</text><text fill="#000000" font-family="'Inter, Helvetica, sans-serif'" font-size="12" lengthAdjust="spacing" textLength="82.1543" x="243.9263" y="880.195">redis:7-alpine</text><text fill="#000000" font-family="'Inter, Helvetica, sans-serif'" font-size="12" lengthAdjust="spacing" textLength="30.5391" x="243.9263" y="894.1638">6379</text></g><!--entity rmq--><g class="entity" data-qualified-name="host.rmq" data-source-line="49" id="ent0012"><rect fill="#FFF8E1" height="85.875" rx="6" ry="6" style="stroke:#B89800;stroke-width:1;" width="192.627" x="421.69" y="821.1188"/><rect fill="#FFF8E1" height="10" style="stroke:#B89800;stroke-width:1;" width="15" x="594.317" y="826.1188"/><rect fill="#FFF8E1" height="2" style="stroke:#B89800;stroke-width:1;" width="4" x="592.317" y="828.1188"/><rect fill="#FFF8E1" height="2" style="stroke:#B89800;stroke-width:1;" width="4" x="592.317" y="832.1188"/><text fill="#000000" font-family="'Inter, Helvetica, sans-serif'" font-size="12" font-style="italic" lengthAdjust="spacing" textLength="150.627" x="437.69" y="852.2575">&#171;executionEnvironment&#187;</text><text fill="#000000" font-family="'Inter, Helvetica, sans-serif'" font-size="12" font-weight="bold" lengthAdjust="spacing" textLength="62.1387" x="437.3736" y="866.2263">rabbitmq</text><text fill="#000000" font-family="'Inter, Helvetica, sans-serif'" font-size="12" lengthAdjust="spacing" textLength="151.2598" x="437.3736" y="880.195">rabbitmq:3-management</text><text fill="#000000" font-family="'Inter, Helvetica, sans-serif'" font-size="12" lengthAdjust="spacing" textLength="80.3848" x="437.3736" y="894.1638">5672 / 15672</text></g><!--entity hpg--><g class="entity" data-qualified-name="host.hpg" data-source-line="50" id="ent0013"><rect fill="#FFF8E1" height="85.875" rx="6" ry="6" style="stroke:#B89800;stroke-width:1;" width="192.627" x="877.69" y="821.1188"/><rect fill="#FFF8E1" height="10" style="stroke:#B89800;stroke-width:1;" width="15" x="1050.317" y="826.1188"/><rect fill="#FFF8E1" height="2" style="stroke:#B89800;stroke-width:1;" width="4" x="1048.317" y="828.1188"/><rect fill="#FFF8E1" height="2" style="stroke:#B89800;stroke-width:1;" width="4" x="1048.317" y="832.1188"/><text fill="#000000" font-family="'Inter, Helvetica, sans-serif'" font-size="12" font-style="italic" lengthAdjust="spacing" textLength="150.627" x="893.69" y="852.2575">&#171;executionEnvironment&#187;</text><text fill="#000000" font-family="'Inter, Helvetica, sans-serif'" font-size="12" font-weight="bold" lengthAdjust="spacing" textLength="119.0625" x="909.4722" y="866.2263">hospital-postgres</text><text fill="#000000" font-family="'Inter, Helvetica, sans-serif'" font-size="12" lengthAdjust="spacing" textLength="112.3711" x="909.4722" y="880.195">postgres:16-alpine</text><text fill="#000000" font-family="'Inter, Helvetica, sans-serif'" font-size="12" lengthAdjust="spacing" textLength="30.5391" x="909.4722" y="894.1638">5432</text></g><!--entity emongo--><g class="entity" data-qualified-name="host.emongo" data-source-line="51" id="ent0014"><rect fill="#FFF8E1" height="85.875" rx="6" ry="6" style="stroke:#B89800;stroke-width:1;" width="192.627" x="649.69" y="821.1188"/><rect fill="#FFF8E1" height="10" style="stroke:#B89800;stroke-width:1;" width="15" x="822.317" y="826.1188"/><rect fill="#FFF8E1" height="2" style="stroke:#B89800;stroke-width:1;" width="4" x="820.317" y="828.1188"/><rect fill="#FFF8E1" height="2" style="stroke:#B89800;stroke-width:1;" width="4" x="820.317" y="832.1188"/><text fill="#000000" font-family="'Inter, Helvetica, sans-serif'" font-size="12" font-style="italic" lengthAdjust="spacing" textLength="150.627" x="665.69" y="852.2575">&#171;executionEnvironment&#187;</text><text fill="#000000" font-family="'Inter, Helvetica, sans-serif'" font-size="12" font-weight="bold" lengthAdjust="spacing" textLength="88.0723" x="696.9673" y="866.2263">email-mongo</text><text fill="#000000" font-family="'Inter, Helvetica, sans-serif'" font-size="12" lengthAdjust="spacing" textLength="53.2734" x="696.9673" y="880.195">mongo:7</text><text fill="#000000" font-family="'Inter, Helvetica, sans-serif'" font-size="12" lengthAdjust="spacing" textLength="38.1738" x="696.9673" y="894.1638">27017</text></g><!--entity volH--><g class="entity" data-qualified-name="host.volH" data-source-line="56" id="ent0015"><rect fill="#F5F5F5" height="36.9688" rx="6" ry="6" style="stroke:#000000;stroke-width:1;" width="165.334" x="475.33" y="980.9888"/><polygon fill="#F5F5F5" points="623.664,985.9888,623.664,999.9888,635.664,999.9888,635.664,991.9888,629.664,985.9888,623.664,985.9888" style="stroke:#000000;stroke-width:1;"/><line style="stroke:#000000;stroke-width:1;" x1="629.664" x2="629.664" y1="985.9888" y2="991.9888"/><line style="stroke:#000000;stroke-width:1;" x1="635.664" x2="629.664" y1="991.9888" y2="991.9888"/><text fill="#000000" font-family="'Inter, Helvetica, sans-serif'" font-size="12" lengthAdjust="spacing" textLength="135.334" x="485.33" y="1005.1275">hospital-postgres-data</text></g><!--entity volE--><g class="entity" data-qualified-name="host.volE" data-source-line="57" id="ent0016"><rect fill="#F5F5F5" height="36.9688" rx="6" ry="6" style="stroke:#000000;stroke-width:1;" width="140.3789" x="675.81" y="980.9888"/><polygon fill="#F5F5F5" points="799.1889,985.9888,799.1889,999.9888,811.1889,999.9888,811.1889,991.9888,805.1889,985.9888,799.1889,985.9888" style="stroke:#000000;stroke-width:1;"/><line style="stroke:#000000;stroke-width:1;" x1="805.1889" x2="805.1889" y1="985.9888" y2="991.9888"/><line style="stroke:#000000;stroke-width:1;" x1="811.1889" x2="805.1889" y1="991.9888" y2="991.9888"/><text fill="#000000" font-family="'Inter, Helvetica, sans-serif'" font-size="12" lengthAdjust="spacing" textLength="110.3789" x="685.81" y="1005.1275">email-mongo-data</text></g><!--reverse link fe to orch--><g class="link" data-entity-1="ent0003" data-entity-2="ent0004" data-link-type="dependency" data-source-line="66" id="lnk17"><path d="M788.9356,260.1097 C783.6156,269.4297 781.86,274.3488 779,284.4888 C774.82,299.3288 779.33,314.6088 786.82,328.0888" fill="none" id="fe-backto-orch" style="stroke:#444444;stroke-width:1;"/><polygon fill="#444444" points="791.91,254.8988,783.9745,260.7321,789.4313,259.2412,790.9223,264.698,791.91,254.8988" style="stroke:#444444;stroke-width:1;"/><text fill="#333333" font-family="'Inter, Helvetica, sans-serif'" font-size="11" lengthAdjust="spacing" textLength="164.4038" x="780" y="295.6993">&#171;HTTP / SSE&#187; /v1/chat/stream</text></g><!--link fe to orch--><!--reverse link fe to tenant--><g class="link" data-entity-1="ent0003" data-entity-2="ent0005" data-link-type="dependency" data-source-line="67" id="lnk18"><path d="M925.1561,239.5665 C973.0361,257.0465 1021.57,283.4888 1053,328.4888 C1090.05,381.5288 1109.22,455.1088 1118.18,500.9188" fill="none" id="fe-backto-tenant" style="stroke:#444444;stroke-width:1;"/><polygon fill="#444444" points="919.52,237.5088,926.6025,244.3527,924.2168,239.2235,929.346,236.8379,919.52,237.5088" style="stroke:#444444;stroke-width:1;"/><text fill="#333333" font-family="'Inter, Helvetica, sans-serif'" font-size="11" lengthAdjust="spacing" textLength="104.5054" x="1094" y="375.6393">&#171;HTTP&#187; /auth/login</text></g><!--link fe to tenant--><g class="link" data-entity-1="ent0003" data-entity-2="ent0005" data-link-type="dependency" data-source-line="102" id="lnk41"><path d="M919.47,246.7288 C936.44,256.5888 952.36,268.9988 964,284.4888 C999.32,331.4788 959.84,363.3188 989,414.3688 C999,431.8688 1008.21,430.6788 1023,444.3688 C1042.74,462.6288 1059.8702,479.0839 1077.9602,496.7739" fill="none" id="fe-to-tenant" style="stroke:#444444;stroke-width:1;stroke-dasharray:7,7;"/><polygon fill="#444444" points="1082.25,500.9688,1078.6119,491.8165,1078.6752,497.473,1073.0187,497.5363,1082.25,500.9688" style="stroke:#444444;stroke-width:1;"/><text fill="#333333" font-family="'Inter, Helvetica, sans-serif'" font-size="11" lengthAdjust="spacing" textLength="54.7905" x="990" y="375.6393">&#171;healthy&#187;</text></g><!--reverse link fe to comp--><g class="link" data-entity-1="ent0003" data-entity-2="ent0008" data-link-type="dependency" data-source-line="68" id="lnk19"><path d="M720.2081,213.79 C575.1981,221.32 316.32,260.4688 239,444.3688 C206.81,520.9288 195.7,559.7588 238,631.2388 C246.39,645.4188 258.68,656.9888 272.41,666.3788" fill="none" id="fe-backto-comp" style="stroke:#444444;stroke-width:1;"/><polygon fill="#444444" points="726.2,213.4788,717.0047,209.9509,721.2067,213.7381,717.4195,217.9402,726.2,213.4788" style="stroke:#444444;stroke-width:1;"/><text fill="#333333" font-family="'Inter, Helvetica, sans-serif'" font-size="11" lengthAdjust="spacing" textLength="85.0405" x="240" y="462.0793">&#171;HTTP&#187; /stats/*</text></g><!--link orch to agent--><g class="link" data-entity-1="ent0004" data-entity-2="ent0006" data-link-type="association" data-source-line="71" id="lnk20"><path d="M726.41,375.4088 C649.46,381.4388 541.21,398.3188 458,444.3688 C433.15,458.1188 411.08,480.8488 394.69,501.0488" fill="none" id="orch-agent" style="stroke:#444444;stroke-width:1;"/><text fill="#333333" font-family="'Inter, Helvetica, sans-serif'" font-size="11" lengthAdjust="spacing" textLength="41.8032" x="479.0745" y="455.5793">&#171;HTTP&#187;</text><text fill="#333333" font-family="'Inter, Helvetica, sans-serif'" font-size="11" lengthAdjust="spacing" textLength="81.9521" x="459" y="468.384">sessions, turns</text></g><!--link orch to agent--><g class="link" data-entity-1="ent0004" data-entity-2="ent0006" data-link-type="dependency" data-source-line="99" id="lnk38"><path d="M726.4,373.2588 C604.81,376.5988 406.21,390.4288 360,444.3688 C346.91,459.6488 345.6832,475.7395 349.4532,495.0995" fill="none" id="orch-to-agent" style="stroke:#444444;stroke-width:1;stroke-dasharray:7,7;"/><polygon fill="#444444" points="350.6,500.9888,352.806,491.3902,349.6443,496.081,344.9535,492.9193,350.6,500.9888" style="stroke:#444444;stroke-width:1;"/><text fill="#333333" font-family="'Inter, Helvetica, sans-serif'" font-size="11" lengthAdjust="spacing" textLength="52.8301" x="361" y="462.0793">&#171;started&#187;</text></g><!--link orch to comp--><g class="link" data-entity-1="ent0004" data-entity-2="ent0008" data-link-type="association" data-source-line="72" id="lnk21"><path d="M779.59,414.7188 C714.35,478.2488 598.06,591.3488 593,595.2388 C568.34,614.1788 560.98,617.6688 533,631.2388 C508.19,643.2688 500.38,642.4688 475,653.2388 C469.29,655.6688 463.43,658.2188 457.55,660.8388" fill="none" id="orch-comp" style="stroke:#444444;stroke-width:1;"/><text fill="#333333" font-family="'Inter, Helvetica, sans-serif'" font-size="11" lengthAdjust="spacing" textLength="41.8032" x="721.937" y="542.0093">&#171;HTTP&#187;</text><text fill="#333333" font-family="'Inter, Helvetica, sans-serif'" font-size="11" lengthAdjust="spacing" textLength="93.6772" x="696" y="554.814">record_turn, csat</text></g><!--link orch to tenant--><g class="link" data-entity-1="ent0004" data-entity-2="ent0005" data-link-type="association" data-source-line="73" id="lnk22"><path d="M876.34,414.8588 C908.83,440.5988 944.87,468.9588 949,471.3688 C951.1,472.5888 988.5,487.8988 1028.29,504.0888" fill="none" id="orch-tenant" style="stroke:#444444;stroke-width:1;"/><text fill="#333333" font-family="'Inter, Helvetica, sans-serif'" font-size="11" lengthAdjust="spacing" textLength="41.8032" x="963.3499" y="455.5793">&#171;HTTP&#187;</text><text fill="#333333" font-family="'Inter, Helvetica, sans-serif'" font-size="11" lengthAdjust="spacing" textLength="68.5029" x="950" y="468.384">JWT validate</text></g><!--link orch to tenant--><!--link orch to hosp--><g class="link" data-entity-1="ent0004" data-entity-2="ent0009" data-link-type="association" data-source-line="74" id="lnk23"><path d="M845.34,414.4888 C870.72,460.6888 914.65,536.1788 961,595.2388 C979.08,618.2788 1001.52,641.7188 1021.09,660.8488" fill="none" id="orch-hosp" style="stroke:#444444;stroke-width:1;"/><text fill="#333333" font-family="'Inter, Helvetica, sans-serif'" font-size="11" lengthAdjust="spacing" textLength="41.8032" x="965.5771" y="542.0093">&#171;HTTP&#187;</text><text fill="#333333" font-family="'Inter, Helvetica, sans-serif'" font-size="11" lengthAdjust="spacing" textLength="48.9575" x="962" y="554.814">tool calls</text></g><!--link orch to hosp--><g class="link" data-entity-1="ent0004" data-entity-2="ent0009" data-link-type="dependency" data-source-line="101" id="lnk40"><path d="M811.8,414.5388 C801.65,462.5188 793.16,541.2388 829,595.2388 C831.25,598.6288 900.0135,629.5902 964.9835,658.3502" fill="none" id="orch-to-hosp" style="stroke:#444444;stroke-width:1;stroke-dasharray:7,7;"/><polygon fill="#444444" points="970.47,660.7788,963.8594,653.4782,965.8979,658.7549,960.6212,660.7935,970.47,660.7788" style="stroke:#444444;stroke-width:1;"/><text fill="#333333" font-family="'Inter, Helvetica, sans-serif'" font-size="11" lengthAdjust="spacing" textLength="52.8301" x="830" y="548.5093">&#171;started&#187;</text></g><!--link agent to conv--><g class="link" data-entity-1="ent0006" data-entity-2="ent0007" data-link-type="association" data-source-line="77" id="lnk24"><path d="M304.97,587.6088 C272.83,610.2588 233.36,638.0888 201.19,660.7488" fill="none" id="agent-conv" style="stroke:#444444;stroke-width:1;"/><text fill="#333333" font-family="'Inter, Helvetica, sans-serif'" font-size="11" lengthAdjust="spacing" textLength="76.5542" x="260" y="628.4493">&#171;HTTP&#187; proxy</text></g><!--link conv to agent--><g class="link" data-entity-1="ent0007" data-entity-2="ent0006" data-link-type="dependency" data-source-line="96" id="lnk35"><path d="M234.12,660.8388 C241.13,658.1288 248.14,655.5588 255,653.2388 C294,640.0388 316.04,660.5188 345,631.2388 C356.42,619.6988 360.8994,608.9093 363.2994,593.2793" fill="none" id="conv-to-agent" style="stroke:#444444;stroke-width:1;stroke-dasharray:7,7;"/><polygon fill="#444444" points="364.21,587.3488,358.8904,595.6375,363.4511,592.2909,366.7977,596.8517,364.21,587.3488" style="stroke:#444444;stroke-width:1;"/><text fill="#333333" font-family="'Inter, Helvetica, sans-serif'" font-size="11" lengthAdjust="spacing" textLength="52.8301" x="355" y="628.4493">&#171;started&#187;</text></g><!--link agent to conv--><!--link agent to hosp--><g class="link" data-entity-1="ent0006" data-entity-2="ent0009" data-link-type="association" data-source-line="78" id="lnk25"><path d="M461.8,587.7188 C470.56,590.5988 479.37,593.1688 488,595.2388 C600.78,622.2488 635.02,591.0688 748,617.2388 C764.72,621.1188 767.37,626.9888 784,631.2388 C857.39,649.9888 880.02,632.9488 953,653.2388 C960.7,655.3788 968.56,657.9488 976.37,660.7688" fill="none" id="agent-hosp" style="stroke:#444444;stroke-width:1;"/><text fill="#333333" font-family="'Inter, Helvetica, sans-serif'" font-size="11" lengthAdjust="spacing" textLength="41.8032" x="785" y="628.4493">&#171;HTTP&#187;</text></g><!--link agent to hosp--><g class="link" data-entity-1="ent0006" data-entity-2="ent0009" data-link-type="dependency" data-source-line="98" id="lnk37"><path d="M461.59,587.1088 C470.43,590.1388 479.32,592.9188 488,595.2388 C556.91,613.6888 577.95,599.2988 647,617.2388 C663.62,621.5588 666.27,627.3888 683,631.2388 C800.33,658.2288 836.26,623.7888 953,653.2388 C961.17,655.2988 963.8446,655.8847 972.0846,658.8047" fill="none" id="agent-to-hosp" style="stroke:#444444;stroke-width:1;stroke-dasharray:7,7;"/><polygon fill="#444444" points="977.74,660.8088,970.593,654.0324,973.0272,659.1388,967.9208,661.573,977.74,660.8088" style="stroke:#444444;stroke-width:1;"/><text fill="#333333" font-family="'Inter, Helvetica, sans-serif'" font-size="11" lengthAdjust="spacing" textLength="52.8301" x="684" y="628.4493">&#171;started&#187;</text></g><!--link agent to hosp--><!--link agent to rmq--><g class="link" data-entity-1="ent0006" data-entity-2="ent0012" data-link-type="association" data-source-line="79" id="lnk26"><path d="M461.79,585.2788 C470.63,588.7188 479.46,592.0888 488,595.2388 C517.01,605.9488 526.84,602.4688 554,617.2388 C576.5,629.4788 587.9,630.1588 599,653.2388 C618.61,694.0488 624.14,717.4588 599,755.1188 C584.84,776.3288 563.31,758.3888 546,777.1188 C539.72,783.9088 533.28,802.6988 528.16,820.9888" fill="none" id="agent-rmq" style="stroke:#444444;stroke-width:1;"/><text fill="#333333" font-family="'Inter, Helvetica, sans-serif'" font-size="11" lengthAdjust="spacing" textLength="45.7671" x="616" y="708.3893">&#171;AMQP&#187;</text></g><!--link agent to rmq--><g class="link" data-entity-1="ent0006" data-entity-2="ent0012" data-link-type="dependency" data-source-line="97" id="lnk36"><path d="M423.36,587.5688 C444.77,605.6588 467.53,628.3688 483,653.2388 C516.45,707.0188 519.44,727.7888 519,791.1188 C518.93,800.7288 518.9061,805.0695 518.7661,814.8295" fill="none" id="agent-to-rmq" style="stroke:#444444;stroke-width:1;stroke-dasharray:7,7;"/><polygon fill="#444444" points="518.68,820.8288,522.8087,811.8871,518.7517,815.8294,514.8095,811.7724,518.68,820.8288" style="stroke:#444444;stroke-width:1;"/><text fill="#333333" font-family="'Inter, Helvetica, sans-serif'" font-size="11" lengthAdjust="spacing" textLength="54.7905" x="519" y="708.3893">&#171;healthy&#187;</text></g><!--link conv to redis--><g class="link" data-entity-1="ent0007" data-entity-2="ent0011" data-link-type="association" data-source-line="82" id="lnk27"><path d="M77.67,747.5188 C64.96,761.1188 58.36,776.4688 69,791.1188 C97.45,830.2988 147.79,848.5488 193.24,856.8888" fill="none" id="conv-redis" style="stroke:#444444;stroke-width:1;"/><text fill="#333333" font-family="'Inter, Helvetica, sans-serif'" font-size="11" lengthAdjust="spacing" textLength="114.7803" x="70" y="788.3293">&#171;TCP&#187; session cache</text></g><!--link conv to redis--><g class="link" data-entity-1="ent0007" data-entity-2="ent0011" data-link-type="dependency" data-source-line="94" id="lnk33"><path d="M180.93,747.4888 C202.31,770.1388 224.4524,793.5948 245.8424,816.2648" fill="none" id="conv-to-redis" style="stroke:#444444;stroke-width:1;stroke-dasharray:7,7;"/><polygon fill="#444444" points="249.96,820.6288,246.6929,811.3377,246.5286,816.9921,240.8742,816.8279,249.96,820.6288" style="stroke:#444444;stroke-width:1;"/><text fill="#333333" font-family="'Inter, Helvetica, sans-serif'" font-size="11" lengthAdjust="spacing" textLength="54.7905" x="220" y="788.3293">&#171;healthy&#187;</text></g><!--link conv to rmq--><g class="link" data-entity-1="ent0007" data-entity-2="ent0012" data-link-type="association" data-source-line="83" id="lnk28"><path d="M225.98,747.4788 C257.58,762.3388 294.01,778.4688 328,791.1188 C360.96,803.3788 370.94,801.1488 404,813.1188 C410.5,815.4688 417.16,818.0188 423.83,820.6688" fill="none" id="conv-rmq" style="stroke:#444444;stroke-width:1;"/><text fill="#333333" font-family="'Inter, Helvetica, sans-serif'" font-size="11" lengthAdjust="spacing" textLength="99.1987" x="329" y="788.3293">&#171;AMQP&#187; consume</text></g><!--link conv to rmq--><g class="link" data-entity-1="ent0007" data-entity-2="ent0012" data-link-type="dependency" data-source-line="95" id="lnk34"><path d="M231.3,747.5288 C239.22,750.3788 247.19,752.9688 255,755.1188 C331.87,776.2188 361.46,741.9488 433,777.1188 C453.72,787.2988 468.35,800.1001 482.84,816.5201" fill="none" id="conv-to-rmq" style="stroke:#444444;stroke-width:1;stroke-dasharray:7,7;"/><polygon fill="#444444" points="486.81,821.0188,483.8542,811.624,483.5017,817.2698,477.8558,816.9173,486.81,821.0188" style="stroke:#444444;stroke-width:1;"/><text fill="#333333" font-family="'Inter, Helvetica, sans-serif'" font-size="11" lengthAdjust="spacing" textLength="54.7905" x="456" y="788.3293">&#171;healthy&#187;</text></g><!--link hosp to hpg--><g class="link" data-entity-1="ent0009" data-entity-2="ent0013" data-link-type="association" data-source-line="86" id="lnk29"><path d="M1096.71,747.5888 C1103.03,761.8988 1105.76,777.6488 1098,791.1188 C1091.17,802.9788 1081.55,813.0588 1070.65,821.5888" fill="none" id="hosp-hpg" style="stroke:#444444;stroke-width:1;"/><text fill="#333333" font-family="'Inter, Helvetica, sans-serif'" font-size="11" lengthAdjust="spacing" textLength="90.9541" x="1103" y="788.3293">&#171;TCP&#187; psycopg2</text></g><!--link hosp to hpg--><g class="link" data-entity-1="ent0009" data-entity-2="ent0013" data-link-type="dependency" data-source-line="93" id="lnk32"><path d="M1042.08,747.4888 C1028.73,770.1388 1015.3846,792.7887 1002.0346,815.4587" fill="none" id="hosp-to-hpg" style="stroke:#444444;stroke-width:1;stroke-dasharray:7,7;"/><polygon fill="#444444" points="998.99,820.6288,1007.0037,814.9034,1001.5272,816.3204,1000.1102,810.8439,998.99,820.6288" style="stroke:#444444;stroke-width:1;"/><text fill="#333333" font-family="'Inter, Helvetica, sans-serif'" font-size="11" lengthAdjust="spacing" textLength="54.7905" x="1024" y="788.3293">&#171;healthy&#187;</text></g><!--link comp to emongo--><g class="link" data-entity-1="ent0008" data-entity-2="ent0014" data-link-type="association" data-source-line="87" id="lnk30"><path d="M465.62,746.8788 C474.45,749.9388 483.33,752.7388 492,755.1188 C555.72,772.5488 578.48,750.6288 639,777.1188 C662.68,787.4788 685.51,804.4988 703.95,820.6688" fill="none" id="comp-emongo" style="stroke:#444444;stroke-width:1;"/><text fill="#333333" font-family="'Inter, Helvetica, sans-serif'" font-size="11" lengthAdjust="spacing" textLength="71.0005" x="663" y="788.3293">&#171;TCP&#187; motor</text></g><!--link comp to emongo--><g class="link" data-entity-1="ent0008" data-entity-2="ent0014" data-link-type="dependency" data-source-line="104" id="lnk43"><path d="M465.72,746.1488 C500.13,760.5688 539.22,776.7488 575,791.1188 C600.2,801.2288 606.89,802.7788 632,813.1188 C637.89,815.5388 638.4153,815.7283 644.5053,818.3083" fill="none" id="comp-to-emongo" style="stroke:#444444;stroke-width:1;stroke-dasharray:7,7;"/><polygon fill="#444444" points="650.03,820.6488,643.3033,813.455,645.4261,818.6984,640.1827,820.8212,650.03,820.6488" style="stroke:#444444;stroke-width:1;"/><text fill="#333333" font-family="'Inter, Helvetica, sans-serif'" font-size="11" lengthAdjust="spacing" textLength="54.7905" x="576" y="788.3293">&#171;healthy&#187;</text></g><!--link email to emongo--><g class="link" data-entity-1="ent0010" data-entity-2="ent0014" data-link-type="association" data-source-line="88" id="lnk31"><path d="M807.36,747.3988 C800.66,756.9788 793.86,767.2388 788,777.1188 C779.78,790.9688 771.76,806.6588 764.97,820.8088" fill="none" id="email-emongo" style="stroke:#444444;stroke-width:1;"/><text fill="#333333" font-family="'Inter, Helvetica, sans-serif'" font-size="11" lengthAdjust="spacing" textLength="112.4492" x="789" y="788.3293">&#171;TCP&#187; mongo-driver</text></g><!--link email to emongo--><g class="link" data-entity-1="ent0010" data-entity-2="ent0014" data-link-type="dependency" data-source-line="105" id="lnk44"><path d="M897.52,747.3588 C909.33,760.9588 915.56,776.3388 906,791.1188 C904.87,792.8588 881.1844,803.7254 848.0544,818.4254" fill="none" id="email-to-emongo" style="stroke:#444444;stroke-width:1;stroke-dasharray:7,7;"/><polygon fill="#444444" points="842.57,820.8588,852.4189,820.8649,847.1403,818.831,849.1743,813.5524,842.57,820.8588" style="stroke:#444444;stroke-width:1;"/><text fill="#333333" font-family="'Inter, Helvetica, sans-serif'" font-size="11" lengthAdjust="spacing" textLength="54.7905" x="911" y="788.3293">&#171;healthy&#187;</text></g><!--link orch to conv--><g class="link" data-entity-1="ent0004" data-entity-2="ent0007" data-link-type="dependency" data-source-line="100" id="lnk39"><path d="M726.46,393.9588 C664.51,411.8788 585.72,442.8288 531,493.3688 C493.66,527.8588 514.09,558.4588 479,595.2388 C456.74,618.5788 446.54,620.8688 416,631.2388 C347.62,654.4688 324.52,633.6788 255,653.2388 C247.3,655.4088 245.0902,655.9424 237.2902,658.7724" fill="none" id="orch-to-conv" style="stroke:#444444;stroke-width:1;stroke-dasharray:7,7;"/><polygon fill="#444444" points="231.65,660.8188,241.4746,661.5094,236.3502,659.1135,238.7461,653.9891,231.65,660.8188" style="stroke:#444444;stroke-width:1;"/><text fill="#333333" font-family="'Inter, Helvetica, sans-serif'" font-size="11" lengthAdjust="spacing" textLength="52.8301" x="532" y="548.5093">&#171;started&#187;</text></g><!--link fe to conv--><g class="link" data-entity-1="ent0003" data-entity-2="ent0007" data-link-type="dependency" data-source-line="103" id="lnk42"><path d="M726.31,221.8188 C582.68,237.2588 321.95,272.2088 248,328.4888 C197.8,366.6988 187.99,385.2288 166,444.3688 C139.01,516.9288 136.7784,602.4216 138.3684,654.9216" fill="none" id="fe-to-conv" style="stroke:#444444;stroke-width:1;stroke-dasharray:7,7;"/><polygon fill="#444444" points="138.55,660.9188,142.2757,651.8019,138.3986,655.9211,134.2794,652.0441,138.55,660.9188" style="stroke:#444444;stroke-width:1;"/><text fill="#333333" font-family="'Inter, Helvetica, sans-serif'" font-size="11" lengthAdjust="spacing" textLength="52.8301" x="167" y="462.0793">&#171;started&#187;</text></g><!--link hpg to volH--><g class="link" data-entity-1="ent0013" data-entity-2="ent0015" data-link-type="dependency" data-source-line="110" id="lnk45"><path d="M883.7,907.4088 C875.79,910.2688 867.82,912.8488 860,914.9888 C782.27,936.2688 757.13,913.6188 680,936.9888 C646.18,947.2388 615.5629,963.332 591.5629,977.542" fill="none" id="hpg-to-volH" style="stroke:#444444;stroke-width:1;stroke-dasharray:7,7;"/><polygon fill="#444444" points="586.4,980.5988,596.1823,979.4555,590.7024,978.0514,592.1064,972.5716,586.4,980.5988" style="stroke:#444444;stroke-width:1;"/><text fill="#333333" font-family="'Inter, Helvetica, sans-serif'" font-size="11" lengthAdjust="spacing" textLength="56.2944" x="681" y="948.1993">&#171;persists&#187;</text></g><!--link emongo to volE--><g class="link" data-entity-1="ent0014" data-entity-2="ent0016" data-link-type="dependency" data-source-line="111" id="lnk46"><path d="M746,907.2688 C746,931.9988 746,955.9588 746,974.6188" fill="none" id="emongo-to-volE" style="stroke:#444444;stroke-width:1;stroke-dasharray:7,7;"/><polygon fill="#444444" points="746,980.6188,750,971.6188,746,975.6188,742,971.6188,746,980.6188" style="stroke:#444444;stroke-width:1;"/><text fill="#333333" font-family="'Inter, Helvetica, sans-serif'" font-size="11" lengthAdjust="spacing" textLength="56.2944" x="747" y="948.1993">&#171;persists&#187;</text></g><!--link conv to comp--><!--link hosp to email--><!--link redis to rmq--><!--link rmq to hpg--><!--link hpg to emongo--><!--link volH to volE--><!--link fe to agent--><!--link hosp to redis--><!--link redis to volH--><?plantuml-src fLVDKkD64BxhAJhEOO7WVy3WscoL0NlPL4AHG993dCeEqjYQGfhHpemDpjPMvPG7IELTSi-Zx9EaUqQsPTdyL0m79Bhxw_yVVM5ZddB84YPaO8LDEEpj_NZP6tDfuVCVVyCvpn8rI-brfrLlxNRXGXbR5T9oBLa2Ky7lz_Q6iZ_bUcPZ8SSWf14H1qI6IeNfC3PgP2iLE5VX7TSWkRrN-gusbDSg4H5y3Q5AquaK8RD2oHgSCnDp-d_4CouZBiCPr27ZsWXZJIq8p9sG6TCi1HEpIDsJqX5B32zGj9h8w4nfYHgRhG8XuYCsIUn0INl9qFNAEt9b7ovuCkKMZTW7mwIf6gx5gB9Py5hypbTHUrgh-pELA0rV7XmSb2bBeUOcKYxORhSBr4iLyLCMterpLnpBe34u60pAN4f7NC-rzuu6fuS5ZZELPafY0jV11eFZVdCZQn7nzFZakD5OiTkA4Git01xIRu7pd5bsompVfFgeNyIyjZEiFMEr2EqaJGAhCh0ARfMr2cClD0-fEeBW5NpzltzG-2RMd0CMAwKwWLic8mCJGoNqtgennwhLy14-lIVj8UP6gmGIDbCJkvtgG6Ace4BT0_3lFp1l1ox7Gd9edS1NJXys8jSHj6gjMhi2hrz7V2f2_kODC0Cn2NyC0e1NKArMuRHtUGwzBdRSM7DZi4j66Y6mQOYCR4kFy0MeqNn-eRAtDsUbxYKR7g1PQtNGYf-4vN2BkKhuKBORZGPy_lClE6wGDVo1XnDAH5zE1GBGOF2sZVYwYZ1cjgfm0f2E7oPeV1rw3vDqA8_di8J_D339hqEZvKnQmdsh4FMja0Jwd95U2j4-bO9usWNcPfvB0fQ7SSF8lQPP8fWC-GjYwZ2gUYAjI3aPH-q9hGPQs7_8A4SOqUPp7ZkK3T4i65QbqAvvtteQbm0smSuT9Bmh7EBeTnq6pDZUrJl2FMa-Xvjc6s9wriLOgSHW47dAHFA2-661PyAof9fYSwoQap1pvunfvUNuNAu9Qrs3imI7kw_xRzYK8VXrfca0d2fbeLrhkrYUl52D0zpW_JcrvKXZ5FK4Hvf-IVbe7Wb3Thc7RgVAaWp7mL0UjJidJvlX93OWijjROTCF3ZH_xhQhAPDOP2Gzb8T7dHR6e4b_dz6HVdWYPHaE9nf3f6h-t6qUBNmuF6W_WnzduySIbYevLeJi7hgTeMnr6itESwaXvjNSJ5KoIRdPd0oMBpQeh7bLZN2LLGWL4IvAt0KRL_ZwJlUdhPVMMV50WepPsC2EeUjf5zoLbWefKc5uj0yOEBgLi21mlOqITR_bsde50uqRcAuv7eqvx4IQtKitfe3M9cxj-VfXTCyuvNWyqTRQ3KQS8WMlCV8qnm6wcB6BcvihwhhhFkQfFctMQPZLiL4uIuiIVbhF9OYNJMnSJnHkgo8VrSiIcVYCPTRKzyZwnGx24r5MQOsx5nJp0tyfDfG6lS08ctt0XfLcmLbMG0qQuedq6x7jGuWpUS5RDXg7pCytC6MOB6RvWeqAR1MIPYNWJP8OCdjbamJUL6U9d1OzpRHwc2t93dL9NXAmTRsstdVV4u42KrudWGCdPfebZllcZ9JaOK7ZmfWlkGYoW4c01dkBiFtSNnpjUCBpm7jCHcPZbxgbWipCGfMDMu4FDFBurYtofCeg7SmNoKO6rtvQe5TRTzotOiJ3MOZ5lVW84JWrTYBtRR8FYHZ7TdSxBJuWjTgRbOZ4sBSsdc6ENA0TtIVa2RfBnUDqNmQUZgsXBOyMnV6u_9BkBItB-uP-77z9zvOyJj-CxpkSwBwdolOjwPlnVJ4HlLWiItbVIu_JjwsXgsNnpmjdsuhnTK8cqnPoziw_Yvr3pesSt2-Jj-u9znK4-8rlZTiwTvnd-HSKHXs_Ph0n97urQMLeCvZj5EO3llfBB2BilryrjPnV8tdfhD7oypulnpBLdRzvgQpJy8JDox1CynTUteDb8jr4UVkKINJEv1bRXtINYKlYEjLT3cl-H-fUvajhpKDFSnTlsGbFykTXsGTFSmVDVm00?></g></svg>